<?xml version="1.0" encoding="UTF-8" standalone="no"?>
<svg
   xmlns:dc="http://purl.org/dc/elements/1.1/"
   xmlns:cc="http://creativecommons.org/ns#"
   xmlns:rdf="http://www.w3.org/1999/02/22-rdf-syntax-ns#"
   xmlns:svg="http://www.w3.org/2000/svg"
   xmlns="http://www.w3.org/2000/svg"
   xmlns:sodipodi="http://sodipodi.sourceforge.net/DTD/sodipodi-0.dtd"
   xmlns:inkscape="http://www.inkscape.org/namespaces/inkscape"
   x="0"
   y="0"
   version="1.1"
   width="1024"
   height="1024"
   id="svg2"
   inkscape:version="0.91 r13725"
   sodipodi:docname="logo.svg">
  <metadata
     id="metadata4144">
    <rdf:RDF>
      <cc:Work
         rdf:about="">
        <dc:format>image/svg+xml</dc:format>
        <dc:type
           rdf:resource="http://purl.org/dc/dcmitype/StillImage" />
      </cc:Work>
    </rdf:RDF>
  </metadata>
  <sodipodi:namedview
     pagecolor="#ffffff"
     bordercolor="#666666"
     borderopacity="1"
     objecttolerance="10"
     gridtolerance="10"
     guidetolerance="10"
     inkscape:pageopacity="0"
     inkscape:pageshadow="2"
     inkscape:window-width="1920"
     inkscape:window-height="1003"
     id="namedview4142"
     showgrid="false"
     inkscape:zoom="22.627417"
     inkscape:cx="617.88994"
     inkscape:cy="320.50788"
     inkscape:window-x="-9"
     inkscape:window-y="-9"
     inkscape:window-maximized="1"
     inkscape:current-layer="svg2" />
  <defs
     id="defs4" />
  <g
     id="layer1"
     transform="translate(2.609375,-0.1171875)">
    <path
       d="M 254.28571,461.14286 C 124.95845,283.80783 172.76589,22.344179 518.57143,18.285713 864.73551,17.69165 924.62692,295.79296 792.85714,449.71428 801.32363,531.52515 801.56457,600.4124 738.57143,618.28571 712.86044,726.38095 722.49635,794.47619 707.14286,829.71429 635.26721,956.70016 410.90207,962.45201 340,831.14286 323.6463,789.92743 337.52032,722.46793 305.74554,612.10714 261.82483,595.21957 248.75392,542.69908 254.28571,461.14286 Z m 0,-222.85715 c -17.59974,40.73409 -9.16333,66.77865 7.42858,110.14286 10.36401,26.90476 -2.21101,80.80953 -7.42858,112.71429 M 797.14286,238.28571 c 12.29402,25.79332 10.01232,51.56456 -7,104 -11.58993,30.47619 0.10253,76.95238 2.71428,107.42857 M 394.53571,693.85714 c -10.53504,-35.20272 -52.53634,-70.40668 -88.79017,-81.75 m 349.59375,79.875 c 16.62092,-41.97389 39.13588,-71.99496 83.23214,-73.69643"
       id="path3284"
       style="fill:#ffffff;fill-opacity:1;fill-rule:evenodd;stroke:#000000;stroke-width:16;stroke-linecap:round;stroke-linejoin:round;stroke-miterlimit:4;stroke-dasharray:none;stroke-opacity:1"
       inkscape:connector-curvature="0" />
    <path
       d="m 340,626 c 21.01189,47.92858 32.25073,99.76637 40,153 48.14101,60.93798 214.10511,78.92024 285,-3 4.80593,-50.91045 22.64395,-100.37289 39,-150 l -48.66071,65.98214 c -5.7084,41.23212 -253.33798,38.59613 -260.80358,1.875 L 340,626 Z m 63.5,172 0,-92 m 28.5,109 1,-101 m 29.5,108 0.5,-103 m 29.5,108.5 c 0,-2 0.5,-106 0.5,-106 M 523.5,831 523,722.5 M 554.5,827 554,722 M 583,822.5 582,719 M 615.5,810.5 614,715 m 30,79 -1,-88.5 m -1,45 c -81.57273,35.5365 -154.09125,38.05497 -238,0"
       id="path3289"
       style="fill:none;fill-opacity:1;fill-rule:evenodd;stroke:#000000;stroke-width:8;stroke-linecap:round;stroke-linejoin:round;stroke-miterlimit:4;stroke-dasharray:none;stroke-opacity:1"
       inkscape:connector-curvature="0" />
    <path
       d="m 309.25,417.75 c -5.68981,20.92871 -1.79034,47.67527 5.75,71.25 9.4422,29.5578 30.8971,47.1029 67,50 41.69936,1.05449 68.26188,-23.11909 86,-62 4.90603,-11.72931 7.98314,-31.34457 3,-53 -2.92837,-11.01791 -16.77401,-27.369 -30.25,-35.75 -24.64077,-14.78154 -121.95596,-6.41192 -131.5,29.5 z m 430.53743,-2.67081 c 5.68981,20.92871 1.79034,47.67527 -5.75,71.25 -9.4422,29.5578 -30.8971,47.1029 -67,50 -41.69936,1.05449 -68.26188,-23.11909 -86,-62 -4.90603,-11.72931 -7.98314,-31.34457 -3,-53 2.92837,-11.01791 16.77401,-27.369 30.25,-35.75 24.64077,-14.78154 121.95596,-6.41192 131.5,29.5 z M 513.5,512 l 0,118 c -17.45348,26.54455 -23.55845,28.54925 -33.5,28 -13.09329,0.0466 -21.92488,-19.53756 -19.5,-42 6.41738,-71.20314 28.01837,-85.86503 53,-104 z m 17.7995,0.46424 0,118 c 17.45348,26.54455 23.55845,28.54925 33.5,28 13.09329,0.0466 21.92488,-19.53756 19.5,-42 -6.41738,-71.20314 -28.01837,-85.86503 -53,-104 z"
       id="path3287"
       style="fill:#000000;fill-opacity:1;fill-rule:evenodd;stroke:none;stroke-width:1px;stroke-linecap:butt;stroke-linejoin:miter;stroke-opacity:1"
       inkscape:connector-curvature="0" />
  </g>
  <g
     transform="matrix(0.97613485,-0.21716528,0.21716528,0.97613485,0,0)"
     style="font-style:normal;font-weight:normal;font-size:0.125px;line-height:125%;font-family:sans-serif;letter-spacing:0px;word-spacing:0px;fill:#000000;fill-opacity:1;stroke:none;stroke-width:1px;stroke-linecap:butt;stroke-linejoin:miter;stroke-opacity:1"
     id="text4146">
    <path
       d="m 450.04001,835.49603 q 0,0.009 -0.002,0.0154 -0.002,0.007 -0.006,0.0115 -0.004,0.005 -0.01,0.007 -0.005,0.002 -0.0114,0.002 -0.006,0 -0.0101,-0.001 -0.004,-0.001 -0.009,-0.004 l -7.4e-4,0.003 -0.0107,0 0,-0.095 0.0115,0 0,0.0339 q 0.005,-0.004 0.0102,-0.006 0.005,-0.003 0.0122,-0.003 0.0121,0 0.019,0.009 0.007,0.009 0.007,0.0262 z m -0.0118,3.1e-4 q 0,-0.0122 -0.004,-0.0185 -0.004,-0.006 -0.013,-0.006 -0.005,0 -0.0101,0.002 -0.005,0.002 -0.01,0.006 l 0,0.0391 q 0.005,0.002 0.008,0.003 0.004,8.6e-4 0.008,8.6e-4 0.01,0 0.0149,-0.006 0.005,-0.006 0.005,-0.0196 z"
       style=""
       id="path4388" />
    <path
       d="m 450.11496,835.49774 -0.0502,0 q 0,0.006 0.002,0.011 0.002,0.005 0.005,0.008 0.003,0.003 0.008,0.004 0.004,0.001 0.01,0.001 0.007,0 0.014,-0.003 0.007,-0.003 0.0101,-0.005 l 6.1e-4,0 0,0.0125 q -0.006,0.002 -0.0118,0.004 -0.006,0.002 -0.0127,0.002 -0.017,0 -0.0265,-0.009 -0.01,-0.009 -0.01,-0.0261 0,-0.0167 0.009,-0.0265 0.009,-0.01 0.024,-0.01 0.0138,0 0.0212,0.008 0.008,0.008 0.008,0.0229 l 0,0.006 z m -0.0112,-0.009 q -6e-5,-0.009 -0.005,-0.014 -0.004,-0.005 -0.0136,-0.005 -0.009,0 -0.0147,0.005 -0.005,0.005 -0.006,0.0135 l 0.0391,0 z"
       style=""
       id="path4390" />
    <path
       d="m 450.19241,835.53064 -0.0615,0 0,-0.0128 q 0.006,-0.005 0.0128,-0.011 0.006,-0.005 0.012,-0.0109 0.0117,-0.0114 0.0161,-0.018 0.004,-0.007 0.004,-0.0145 0,-0.007 -0.005,-0.011 -0.005,-0.004 -0.013,-0.004 -0.006,0 -0.012,0.002 -0.006,0.002 -0.0126,0.006 l -6.1e-4,0 0,-0.0128 q 0.004,-0.002 0.0115,-0.004 0.007,-0.002 0.014,-0.002 0.014,0 0.0219,0.007 0.008,0.007 0.008,0.0182 0,0.005 -0.001,0.01 -0.001,0.004 -0.004,0.008 -0.002,0.004 -0.006,0.007 -0.003,0.004 -0.008,0.008 -0.007,0.006 -0.0135,0.0125 -0.007,0.006 -0.013,0.0111 l 0.0489,0 0,0.0104 z"
       style=""
       id="path4392" />
    <path
       d="m 450.27225,835.45337 -0.0411,0.0773 -0.0131,0 0.0438,-0.0802 -0.0518,0 0,-0.0107 0.0622,0 0,0.0136 z"
       style=""
       id="path4394" />
    <path
       d="m 450.35226,835.50531 q 0,0.0118 -0.009,0.0196 -0.009,0.008 -0.0231,0.008 -0.0148,0 -0.0236,-0.008 -0.009,-0.008 -0.009,-0.0195 0,-0.008 0.004,-0.0137 0.004,-0.006 0.0124,-0.01 l 0,-3.7e-4 q -0.007,-0.004 -0.0109,-0.009 -0.003,-0.005 -0.003,-0.0116 0,-0.0103 0.008,-0.0171 0.008,-0.007 0.0214,-0.007 0.0136,0 0.0217,0.007 0.008,0.007 0.008,0.0166 0,0.006 -0.004,0.0121 -0.004,0.006 -0.0113,0.009 l 0,3.6e-4 q 0.009,0.004 0.0131,0.009 0.005,0.005 0.005,0.0137 z m -0.0145,-0.0444 q 0,-0.007 -0.005,-0.0104 -0.005,-0.004 -0.0128,-0.004 -0.008,0 -0.0126,0.004 -0.005,0.004 -0.005,0.01 0,0.004 0.002,0.008 0.002,0.003 0.008,0.006 0.002,0.001 0.006,0.003 0.004,0.002 0.008,0.003 0.006,-0.004 0.008,-0.008 0.002,-0.004 0.002,-0.01 z m 0.002,0.0455 q 0,-0.006 -0.002,-0.009 -0.002,-0.003 -0.01,-0.007 -0.003,-0.001 -0.006,-0.003 -0.003,-0.001 -0.009,-0.003 -0.005,0.003 -0.009,0.008 -0.003,0.005 -0.003,0.0116 0,0.008 0.006,0.0136 0.006,0.005 0.0144,0.005 0.009,0 0.0142,-0.005 0.005,-0.005 0.005,-0.0126 z"
       style=""
       id="path4396" />
    <path
       d="m 450.43326,835.50507 -0.0135,0 0,0.0256 -0.0117,0 0,-0.0256 -0.0435,0 0,-0.014 0.044,-0.0513 0.0112,0 0,0.0555 0.0135,0 0,0.01 z m -0.0252,-0.01 0,-0.041 -0.0352,0.041 0.0352,0 z"
       style=""
       id="path4398" />
    <path
       d="m 450.51065,835.47974 q 0,0.0119 -0.003,0.0216 -0.003,0.01 -0.008,0.0165 -0.006,0.007 -0.0139,0.0108 -0.008,0.004 -0.0197,0.004 -0.003,0 -0.006,-3.7e-4 -0.003,-3e-4 -0.005,-0.001 l 0,-0.0117 6.1e-4,0 q 0.002,9.1e-4 0.005,0.002 0.003,7.9e-4 0.007,7.9e-4 0.0135,0 0.0211,-0.008 0.008,-0.008 0.009,-0.0223 -0.006,0.003 -0.0107,0.005 -0.005,0.001 -0.0109,0.001 -0.006,0 -0.0102,-0.001 -0.005,-0.001 -0.009,-0.004 -0.005,-0.004 -0.008,-0.009 -0.003,-0.006 -0.003,-0.0137 0,-0.0139 0.009,-0.0226 0.009,-0.009 0.0223,-0.009 0.007,0 0.0122,0.002 0.006,0.002 0.01,0.006 0.005,0.005 0.008,0.0131 0.003,0.008 0.003,0.0206 z m -0.0123,-0.003 q 0,-0.009 -0.002,-0.0152 -0.002,-0.006 -0.005,-0.009 -0.003,-0.003 -0.006,-0.004 -0.003,-0.001 -0.007,-0.001 -0.009,0 -0.0139,0.005 -0.005,0.005 -0.005,0.0154 0,0.006 0.002,0.009 0.002,0.004 0.006,0.006 0.003,0.002 0.006,0.003 0.003,6.1e-4 0.007,6.1e-4 0.005,0 0.01,-0.001 0.005,-0.001 0.009,-0.004 6e-5,-0.001 1.2e-4,-0.002 1.2e-4,-0.001 1.2e-4,-0.003 z"
       style=""
       id="path4400" />
    <path
       d="m 450.59036,835.53064 -0.0615,0 0,-0.0128 q 0.006,-0.005 0.0128,-0.011 0.006,-0.005 0.012,-0.0109 0.0117,-0.0114 0.0161,-0.018 0.004,-0.007 0.004,-0.0145 0,-0.007 -0.005,-0.011 -0.005,-0.004 -0.013,-0.004 -0.006,0 -0.012,0.002 -0.006,0.002 -0.0126,0.006 l -6.1e-4,0 0,-0.0128 q 0.004,-0.002 0.0115,-0.004 0.007,-0.002 0.014,-0.002 0.014,0 0.0219,0.007 0.008,0.007 0.008,0.0182 0,0.005 -0.001,0.01 -0.001,0.004 -0.004,0.008 -0.002,0.004 -0.006,0.007 -0.003,0.004 -0.008,0.008 -0.007,0.006 -0.0135,0.0125 -0.007,0.006 -0.013,0.0111 l 0.0489,0 0,0.0104 z"
       style=""
       id="path4402" />
    <path
       d="m 450.66287,835.53064 -0.0114,0 0,-0.007 q -0.002,0.001 -0.004,0.003 -0.003,0.002 -0.005,0.003 -0.003,0.001 -0.007,0.002 -0.004,9.7e-4 -0.009,9.7e-4 -0.009,0 -0.0156,-0.006 -0.006,-0.006 -0.006,-0.0156 0,-0.008 0.003,-0.0125 0.003,-0.005 0.01,-0.008 0.006,-0.003 0.0149,-0.004 0.009,-9.8e-4 0.0187,-0.001 l 0,-0.002 q 0,-0.004 -0.001,-0.006 -0.001,-0.003 -0.004,-0.004 -0.002,-0.001 -0.006,-0.002 -0.003,-4.9e-4 -0.007,-4.9e-4 -0.005,0 -0.0101,0.001 -0.006,0.001 -0.0115,0.003 l -6.1e-4,0 0,-0.0117 q 0.003,-9.2e-4 0.01,-0.002 0.006,-0.001 0.0125,-0.001 0.007,0 0.0125,0.001 0.005,0.001 0.009,0.004 0.004,0.003 0.006,0.007 0.002,0.004 0.002,0.011 l 0,0.0463 z m -0.0114,-0.0168 0,-0.019 q -0.005,3.1e-4 -0.0124,9.2e-4 -0.007,6.1e-4 -0.0112,0.002 -0.005,0.001 -0.008,0.004 -0.003,0.003 -0.003,0.008 0,0.006 0.004,0.009 0.004,0.003 0.0108,0.003 0.006,0 0.0111,-0.002 0.005,-0.002 0.009,-0.006 z"
       style=""
       id="path4404" />
    <path
       d="m 450.74216,835.49774 -0.0502,0 q 0,0.006 0.002,0.011 0.002,0.005 0.005,0.008 0.003,0.003 0.007,0.004 0.004,0.001 0.01,0.001 0.007,0 0.014,-0.003 0.007,-0.003 0.0101,-0.005 l 6.1e-4,0 0,0.0125 q -0.006,0.002 -0.0118,0.004 -0.006,0.002 -0.0127,0.002 -0.017,0 -0.0265,-0.009 -0.01,-0.009 -0.01,-0.0261 0,-0.0167 0.009,-0.0265 0.009,-0.01 0.024,-0.01 0.0138,0 0.0212,0.008 0.008,0.008 0.008,0.0229 l 0,0.006 z m -0.0112,-0.009 q -6e-5,-0.009 -0.005,-0.014 -0.004,-0.005 -0.0136,-0.005 -0.009,0 -0.0147,0.005 -0.005,0.005 -0.006,0.0135 l 0.0391,0 z"
       style=""
       id="path4406" />
    <path
       d="m 450.81949,835.47974 q 0,0.0119 -0.003,0.0216 -0.003,0.01 -0.008,0.0165 -0.006,0.007 -0.0139,0.0108 -0.008,0.004 -0.0197,0.004 -0.003,0 -0.006,-3.7e-4 -0.003,-3e-4 -0.005,-0.001 l 0,-0.0117 6.1e-4,0 q 0.002,9.1e-4 0.005,0.002 0.003,7.9e-4 0.007,7.9e-4 0.0135,0 0.0211,-0.008 0.008,-0.008 0.009,-0.0223 -0.006,0.003 -0.0107,0.005 -0.005,0.001 -0.0109,0.001 -0.006,0 -0.0102,-0.001 -0.005,-0.001 -0.009,-0.004 -0.005,-0.004 -0.008,-0.009 -0.003,-0.006 -0.003,-0.0137 0,-0.0139 0.009,-0.0226 0.009,-0.009 0.0223,-0.009 0.007,0 0.0122,0.002 0.006,0.002 0.01,0.006 0.005,0.005 0.008,0.0131 0.003,0.008 0.003,0.0206 z m -0.0123,-0.003 q 0,-0.009 -0.002,-0.0152 -0.002,-0.006 -0.005,-0.009 -0.003,-0.003 -0.006,-0.004 -0.003,-0.001 -0.007,-0.001 -0.009,0 -0.0139,0.005 -0.005,0.005 -0.005,0.0154 0,0.006 0.002,0.009 0.002,0.004 0.006,0.006 0.003,0.002 0.006,0.003 0.003,6.1e-4 0.007,6.1e-4 0.005,0 0.01,-0.001 0.005,-0.001 0.009,-0.004 6e-5,-0.001 1.2e-4,-0.002 1.2e-4,-0.001 1.2e-4,-0.003 z"
       style=""
       id="path4408" />
    <path
       d="m 450.89914,835.49603 q 0,0.009 -0.002,0.0154 -0.002,0.007 -0.006,0.0115 -0.004,0.005 -0.01,0.007 -0.005,0.002 -0.0114,0.002 -0.006,0 -0.0101,-0.001 -0.004,-0.001 -0.009,-0.004 l -7.4e-4,0.003 -0.0107,0 0,-0.095 0.0115,0 0,0.0339 q 0.005,-0.004 0.0102,-0.006 0.005,-0.003 0.0122,-0.003 0.0121,0 0.019,0.009 0.007,0.009 0.007,0.0262 z m -0.0118,3.1e-4 q 0,-0.0122 -0.004,-0.0185 -0.004,-0.006 -0.013,-0.006 -0.005,0 -0.0101,0.002 -0.005,0.002 -0.01,0.006 l 0,0.0391 q 0.005,0.002 0.008,0.003 0.004,8.6e-4 0.008,8.6e-4 0.01,0 0.0149,-0.006 0.005,-0.006 0.005,-0.0196 z"
       style=""
       id="path4410" />
    <path
       d="m 450.97696,835.47974 q 0,0.0119 -0.003,0.0216 -0.003,0.01 -0.008,0.0165 -0.006,0.007 -0.0139,0.0108 -0.008,0.004 -0.0197,0.004 -0.003,0 -0.006,-3.7e-4 -0.003,-3e-4 -0.005,-0.001 l 0,-0.0117 6.1e-4,0 q 0.002,9.1e-4 0.005,0.002 0.003,7.9e-4 0.007,7.9e-4 0.0135,0 0.0211,-0.008 0.008,-0.008 0.009,-0.0223 -0.006,0.003 -0.0107,0.005 -0.005,0.001 -0.0109,0.001 -0.006,0 -0.0102,-0.001 -0.005,-0.001 -0.009,-0.004 -0.005,-0.004 -0.008,-0.009 -0.003,-0.006 -0.003,-0.0137 0,-0.0139 0.009,-0.0226 0.009,-0.009 0.0223,-0.009 0.007,0 0.0122,0.002 0.006,0.002 0.01,0.006 0.005,0.005 0.008,0.0131 0.003,0.008 0.003,0.0206 z m -0.0123,-0.003 q 0,-0.009 -0.002,-0.0152 -0.002,-0.006 -0.005,-0.009 -0.003,-0.003 -0.006,-0.004 -0.003,-0.001 -0.007,-0.001 -0.009,0 -0.0139,0.005 -0.005,0.005 -0.005,0.0154 0,0.006 0.002,0.009 0.002,0.004 0.006,0.006 0.003,0.002 0.006,0.003 0.003,6.1e-4 0.007,6.1e-4 0.005,0 0.01,-0.001 0.005,-0.001 0.009,-0.004 6e-5,-0.001 1.2e-4,-0.002 1.2e-4,-0.001 1.2e-4,-0.003 z"
       style=""
       id="path4412" />
    <path
       d="m 451.05655,835.47974 q 0,0.0119 -0.003,0.0216 -0.003,0.01 -0.008,0.0165 -0.006,0.007 -0.0139,0.0108 -0.008,0.004 -0.0197,0.004 -0.003,0 -0.006,-3.7e-4 -0.003,-3e-4 -0.005,-0.001 l 0,-0.0117 6.1e-4,0 q 0.002,9.1e-4 0.005,0.002 0.003,7.9e-4 0.007,7.9e-4 0.0135,0 0.0211,-0.008 0.008,-0.008 0.009,-0.0223 -0.006,0.003 -0.0107,0.005 -0.005,0.001 -0.0109,0.001 -0.006,0 -0.0102,-0.001 -0.005,-0.001 -0.009,-0.004 -0.005,-0.004 -0.008,-0.009 -0.003,-0.006 -0.003,-0.0137 0,-0.0139 0.009,-0.0226 0.009,-0.009 0.0223,-0.009 0.007,0 0.0122,0.002 0.006,0.002 0.01,0.006 0.005,0.005 0.008,0.0131 0.003,0.008 0.003,0.0206 z m -0.0123,-0.003 q 0,-0.009 -0.002,-0.0152 -0.002,-0.006 -0.005,-0.009 -0.003,-0.003 -0.006,-0.004 -0.003,-0.001 -0.007,-0.001 -0.009,0 -0.0139,0.005 -0.005,0.005 -0.005,0.0154 0,0.006 0.002,0.009 0.002,0.004 0.006,0.006 0.003,0.002 0.006,0.003 0.003,6.1e-4 0.007,6.1e-4 0.005,0 0.01,-0.001 0.005,-0.001 0.009,-0.004 6e-5,-0.001 1.2e-4,-0.002 1.2e-4,-0.001 1.2e-4,-0.003 z"
       style=""
       id="path4414" />
    <path
       d="m 451.13693,835.50531 q 0,0.0118 -0.009,0.0196 -0.009,0.008 -0.0231,0.008 -0.0148,0 -0.0236,-0.008 -0.009,-0.008 -0.009,-0.0195 0,-0.008 0.004,-0.0137 0.004,-0.006 0.0124,-0.01 l 0,-3.7e-4 q -0.007,-0.004 -0.0109,-0.009 -0.003,-0.005 -0.003,-0.0116 0,-0.0103 0.008,-0.0171 0.008,-0.007 0.0214,-0.007 0.0136,0 0.0217,0.007 0.008,0.007 0.008,0.0166 0,0.006 -0.004,0.0121 -0.004,0.006 -0.0113,0.009 l 0,3.6e-4 q 0.009,0.004 0.0131,0.009 0.005,0.005 0.005,0.0137 z m -0.0145,-0.0444 q 0,-0.007 -0.005,-0.0104 -0.005,-0.004 -0.0128,-0.004 -0.008,0 -0.0126,0.004 -0.005,0.004 -0.005,0.01 0,0.004 0.002,0.008 0.002,0.003 0.008,0.006 0.002,0.001 0.006,0.003 0.004,0.002 0.008,0.003 0.006,-0.004 0.008,-0.008 0.002,-0.004 0.002,-0.01 z m 0.002,0.0455 q 0,-0.006 -0.002,-0.009 -0.002,-0.003 -0.01,-0.007 -0.003,-0.001 -0.006,-0.003 -0.003,-0.001 -0.009,-0.003 -0.005,0.003 -0.009,0.008 -0.003,0.005 -0.003,0.0116 0,0.008 0.006,0.0136 0.006,0.005 0.0144,0.005 0.009,0 0.0142,-0.005 0.005,-0.005 0.005,-0.0126 z"
       style=""
       id="path4416" />
    <path
       d="m 451.21286,835.49774 -0.0502,0 q 0,0.006 0.002,0.011 0.002,0.005 0.005,0.008 0.003,0.003 0.008,0.004 0.004,0.001 0.01,0.001 0.007,0 0.014,-0.003 0.007,-0.003 0.0101,-0.005 l 6.1e-4,0 0,0.0125 q -0.006,0.002 -0.0118,0.004 -0.006,0.002 -0.0127,0.002 -0.017,0 -0.0265,-0.009 -0.01,-0.009 -0.01,-0.0261 0,-0.0167 0.009,-0.0265 0.009,-0.01 0.024,-0.01 0.0138,0 0.0212,0.008 0.008,0.008 0.008,0.0229 l 0,0.006 z m -0.0112,-0.009 q -6e-5,-0.009 -0.005,-0.014 -0.004,-0.005 -0.0136,-0.005 -0.009,0 -0.0147,0.005 -0.005,0.005 -0.006,0.0135 l 0.0391,0 z"
       style=""
       id="path4418" />
    <path
       d="m 451.28323,835.53064 -0.0114,0 0,-0.007 q -0.002,0.001 -0.004,0.003 -0.003,0.002 -0.005,0.003 -0.003,0.001 -0.007,0.002 -0.004,9.7e-4 -0.009,9.7e-4 -0.009,0 -0.0156,-0.006 -0.006,-0.006 -0.006,-0.0156 0,-0.008 0.003,-0.0125 0.003,-0.005 0.01,-0.008 0.006,-0.003 0.0149,-0.004 0.009,-9.8e-4 0.0187,-0.001 l 0,-0.002 q 0,-0.004 -0.001,-0.006 -0.001,-0.003 -0.004,-0.004 -0.002,-0.001 -0.006,-0.002 -0.003,-4.9e-4 -0.007,-4.9e-4 -0.005,0 -0.0101,0.001 -0.006,0.001 -0.0115,0.003 l -6.1e-4,0 0,-0.0117 q 0.003,-9.2e-4 0.01,-0.002 0.006,-0.001 0.0125,-0.001 0.007,0 0.0125,0.001 0.005,0.001 0.009,0.004 0.004,0.003 0.006,0.007 0.002,0.004 0.002,0.011 l 0,0.0463 z m -0.0114,-0.0168 0,-0.019 q -0.005,3.1e-4 -0.0124,9.2e-4 -0.007,6.1e-4 -0.0112,0.002 -0.005,0.001 -0.008,0.004 -0.003,0.003 -0.003,0.008 0,0.006 0.004,0.009 0.004,0.003 0.0108,0.003 0.006,0 0.011,-0.002 0.005,-0.002 0.009,-0.006 z"
       style=""
       id="path4420" />
    <path
       d="m 451.36252,835.49774 -0.0502,0 q 0,0.006 0.002,0.011 0.002,0.005 0.005,0.008 0.003,0.003 0.007,0.004 0.004,0.001 0.01,0.001 0.007,0 0.014,-0.003 0.007,-0.003 0.0101,-0.005 l 6.1e-4,0 0,0.0125 q -0.006,0.002 -0.0118,0.004 -0.006,0.002 -0.0127,0.002 -0.017,0 -0.0265,-0.009 -0.01,-0.009 -0.01,-0.0261 0,-0.0167 0.009,-0.0265 0.009,-0.01 0.024,-0.01 0.0138,0 0.0212,0.008 0.008,0.008 0.008,0.0229 l 0,0.006 z m -0.0112,-0.009 q -6e-5,-0.009 -0.005,-0.014 -0.004,-0.005 -0.0136,-0.005 -0.009,0 -0.0147,0.005 -0.005,0.005 -0.006,0.0135 l 0.0391,0 z"
       style=""
       id="path4422" />
    <path
       d="m 451.43991,835.49603 q 0,0.009 -0.002,0.0154 -0.002,0.007 -0.006,0.0115 -0.004,0.005 -0.01,0.007 -0.005,0.002 -0.0114,0.002 -0.006,0 -0.0101,-0.001 -0.004,-0.001 -0.009,-0.004 l -7.3e-4,0.003 -0.0108,0 0,-0.095 0.0115,0 0,0.0339 q 0.005,-0.004 0.0102,-0.006 0.005,-0.003 0.0122,-0.003 0.0121,0 0.019,0.009 0.007,0.009 0.007,0.0262 z m -0.0118,3.1e-4 q 0,-0.0122 -0.004,-0.0185 -0.004,-0.006 -0.013,-0.006 -0.005,0 -0.0101,0.002 -0.005,0.002 -0.01,0.006 l 0,0.0391 q 0.005,0.002 0.008,0.003 0.004,8.6e-4 0.008,8.6e-4 0.01,0 0.0149,-0.006 0.005,-0.006 0.005,-0.0196 z"
       style=""
       id="path4424" />
    <path
       d="m 451.51486,835.49774 -0.0502,0 q 0,0.006 0.002,0.011 0.002,0.005 0.005,0.008 0.003,0.003 0.008,0.004 0.004,0.001 0.01,0.001 0.007,0 0.014,-0.003 0.007,-0.003 0.0101,-0.005 l 6.1e-4,0 0,0.0125 q -0.006,0.002 -0.0118,0.004 -0.006,0.002 -0.0127,0.002 -0.017,0 -0.0265,-0.009 -0.01,-0.009 -0.01,-0.0261 0,-0.0167 0.009,-0.0265 0.009,-0.01 0.024,-0.01 0.0138,0 0.0212,0.008 0.008,0.008 0.008,0.0229 l 0,0.006 z m -0.0112,-0.009 q -6e-5,-0.009 -0.005,-0.014 -0.004,-0.005 -0.0136,-0.005 -0.009,0 -0.0147,0.005 -0.005,0.005 -0.006,0.0135 l 0.0391,0 z"
       style=""
       id="path4426" />
    <path
       d="m 451.58432,835.48688 q 0.003,0.003 0.005,0.007 0.002,0.004 0.002,0.0103 0,0.006 -0.002,0.0114 -0.002,0.005 -0.006,0.009 -0.005,0.004 -0.0108,0.006 -0.006,0.002 -0.0136,0.002 -0.008,0 -0.0149,-0.002 -0.007,-0.002 -0.012,-0.004 l 0,-0.0127 9.1e-4,0 q 0.005,0.003 0.0122,0.006 0.007,0.002 0.0136,0.002 0.004,0 0.008,-0.001 0.004,-0.001 0.007,-0.004 0.003,-0.003 0.004,-0.006 0.001,-0.003 0.001,-0.008 0,-0.005 -0.002,-0.008 -0.002,-0.003 -0.004,-0.005 -0.003,-0.002 -0.007,-0.003 -0.004,-7.3e-4 -0.008,-7.3e-4 l -0.006,0 0,-0.0101 0.004,0 q 0.009,0 0.0148,-0.004 0.006,-0.004 0.006,-0.0113 0,-0.003 -0.001,-0.006 -0.001,-0.003 -0.004,-0.004 -0.003,-0.002 -0.006,-0.002 -0.003,-6.1e-4 -0.007,-6.1e-4 -0.006,0 -0.0123,0.002 -0.007,0.002 -0.0123,0.006 l -6.1e-4,0 0,-0.0128 q 0.004,-0.002 0.0115,-0.004 0.007,-0.002 0.014,-0.002 0.007,0 0.0117,0.001 0.005,0.001 0.009,0.004 0.004,0.003 0.007,0.007 0.002,0.004 0.002,0.01 0,0.008 -0.005,0.0132 -0.005,0.006 -0.0126,0.007 l 0,8.6e-4 q 0.003,4.9e-4 0.007,0.002 0.004,0.002 0.006,0.004 z"
       style=""
       id="path4428" />
    <path
       d="m 451.66226,835.52637 q -0.006,0.003 -0.0109,0.004 -0.005,0.002 -0.0109,0.002 -0.007,0 -0.0135,-0.002 -0.006,-0.002 -0.0106,-0.007 -0.004,-0.004 -0.007,-0.0111 -0.002,-0.007 -0.002,-0.0157 0,-0.0167 0.009,-0.0262 0.009,-0.01 0.0243,-0.01 0.006,0 0.0115,0.002 0.006,0.002 0.0104,0.004 l 0,0.0128 -6.1e-4,0 q -0.005,-0.004 -0.0109,-0.006 -0.006,-0.002 -0.0109,-0.002 -0.01,0 -0.0154,0.007 -0.006,0.007 -0.006,0.0192 0,0.0123 0.005,0.019 0.006,0.007 0.0156,0.007 0.003,0 0.007,-9.2e-4 0.004,-9.1e-4 0.006,-0.002 0.003,-0.001 0.005,-0.003 0.002,-0.001 0.003,-0.003 l 6.1e-4,0 0,0.0126 z"
       style=""
       id="path4430" />
    <path
       d="m 451.73001,835.53064 -0.0114,0 0,-0.007 q -0.002,0.001 -0.004,0.003 -0.003,0.002 -0.005,0.003 -0.003,0.001 -0.007,0.002 -0.004,9.7e-4 -0.009,9.7e-4 -0.009,0 -0.0156,-0.006 -0.006,-0.006 -0.006,-0.0156 0,-0.008 0.003,-0.0125 0.003,-0.005 0.01,-0.008 0.006,-0.003 0.0149,-0.004 0.009,-9.8e-4 0.0187,-0.001 l 0,-0.002 q 0,-0.004 -0.001,-0.006 -0.001,-0.003 -0.004,-0.004 -0.002,-0.001 -0.006,-0.002 -0.003,-4.9e-4 -0.007,-4.9e-4 -0.005,0 -0.0101,0.001 -0.006,0.001 -0.0115,0.003 l -6.1e-4,0 0,-0.0117 q 0.003,-9.2e-4 0.01,-0.002 0.006,-0.001 0.0125,-0.001 0.007,0 0.0125,0.001 0.005,0.001 0.009,0.004 0.004,0.003 0.006,0.007 0.002,0.004 0.002,0.011 l 0,0.0463 z m -0.0114,-0.0168 0,-0.019 q -0.005,3.1e-4 -0.0124,9.2e-4 -0.007,6.1e-4 -0.0112,0.002 -0.005,0.001 -0.008,0.004 -0.003,0.003 -0.003,0.008 0,0.006 0.004,0.009 0.004,0.003 0.0108,0.003 0.006,0 0.0111,-0.002 0.005,-0.002 0.009,-0.006 z"
       style=""
       id="path4432" />
    <path
       d="m 451.81155,835.50177 q 0,0.006 -0.002,0.0122 -0.002,0.006 -0.006,0.01 -0.004,0.004 -0.0105,0.007 -0.006,0.002 -0.014,0.002 -0.007,0 -0.0143,-0.002 -0.007,-0.002 -0.0117,-0.004 l 0,-0.0129 8.5e-4,0 q 0.005,0.003 0.0117,0.005 0.007,0.002 0.0132,0.002 0.004,0 0.008,-0.001 0.004,-0.001 0.007,-0.004 0.003,-0.003 0.004,-0.006 0.001,-0.004 0.001,-0.008 0,-0.005 -0.002,-0.008 -0.002,-0.003 -0.004,-0.005 -0.003,-0.002 -0.008,-0.003 -0.005,-9.8e-4 -0.0101,-9.8e-4 -0.005,0 -0.0104,7.4e-4 -0.005,7.3e-4 -0.009,0.001 l 0,-0.0468 0.0547,0 0,0.0107 -0.0429,0 0,0.0242 q 0.003,-2.4e-4 0.005,-3.7e-4 0.003,-1.2e-4 0.005,-1.2e-4 0.007,0 0.0129,0.001 0.006,0.001 0.0102,0.004 0.005,0.003 0.008,0.009 0.003,0.005 0.003,0.0133 z"
       style=""
       id="path4434" />
    <path
       d="m 451.89395,835.50507 -0.0135,0 0,0.0256 -0.0117,0 0,-0.0256 -0.0435,0 0,-0.014 0.044,-0.0513 0.0112,0 0,0.0555 0.0135,0 0,0.01 z m -0.0252,-0.01 0,-0.041 -0.0352,0.041 0.0352,0 z"
       style=""
       id="path4436" />
    <path
       d="m 451.96182,835.52637 q -0.006,0.003 -0.0109,0.004 -0.005,0.002 -0.0109,0.002 -0.007,0 -0.0136,-0.002 -0.006,-0.002 -0.0106,-0.007 -0.004,-0.004 -0.007,-0.0111 -0.002,-0.007 -0.002,-0.0157 0,-0.0167 0.009,-0.0262 0.009,-0.01 0.0243,-0.01 0.006,0 0.0115,0.002 0.006,0.002 0.0104,0.004 l 0,0.0128 -6.1e-4,0 q -0.005,-0.004 -0.0109,-0.006 -0.006,-0.002 -0.0109,-0.002 -0.01,0 -0.0154,0.007 -0.006,0.007 -0.006,0.0192 0,0.0123 0.005,0.019 0.006,0.007 0.0156,0.007 0.003,0 0.007,-9.2e-4 0.004,-9.1e-4 0.006,-0.002 0.003,-0.001 0.005,-0.003 0.002,-0.001 0.003,-0.003 l 6.1e-4,0 0,0.0126 z"
       style=""
       id="path4438" />
    <path
       d="m 452.03732,835.50531 q 0,0.0118 -0.009,0.0196 -0.009,0.008 -0.0231,0.008 -0.0148,0 -0.0236,-0.008 -0.009,-0.008 -0.009,-0.0195 0,-0.008 0.004,-0.0137 0.004,-0.006 0.0124,-0.01 l 0,-3.7e-4 q -0.007,-0.004 -0.0109,-0.009 -0.003,-0.005 -0.003,-0.0116 0,-0.0103 0.008,-0.0171 0.008,-0.007 0.0214,-0.007 0.0136,0 0.0217,0.007 0.008,0.007 0.008,0.0166 0,0.006 -0.004,0.0121 -0.004,0.006 -0.0113,0.009 l 0,3.6e-4 q 0.009,0.004 0.0131,0.009 0.005,0.005 0.005,0.0137 z m -0.0145,-0.0444 q 0,-0.007 -0.005,-0.0104 -0.005,-0.004 -0.0128,-0.004 -0.008,0 -0.0126,0.004 -0.005,0.004 -0.005,0.01 0,0.004 0.002,0.008 0.002,0.003 0.008,0.006 0.002,0.001 0.006,0.003 0.004,0.002 0.008,0.003 0.006,-0.004 0.008,-0.008 0.002,-0.004 0.002,-0.01 z m 0.002,0.0455 q 0,-0.006 -0.002,-0.009 -0.002,-0.003 -0.01,-0.007 -0.003,-0.001 -0.006,-0.003 -0.003,-0.001 -0.009,-0.003 -0.005,0.003 -0.009,0.008 -0.003,0.005 -0.003,0.0116 0,0.008 0.006,0.0136 0.006,0.005 0.0144,0.005 0.009,0 0.0142,-0.005 0.005,-0.005 0.005,-0.0126 z"
       style=""
       id="path4440" />
    <path
       d="m 452.11612,835.48517 q 0,0.0245 -0.008,0.0359 -0.008,0.0114 -0.0237,0.0114 -0.0164,0 -0.0239,-0.0116 -0.008,-0.0116 -0.008,-0.0357 0,-0.0242 0.008,-0.0358 0.008,-0.0116 0.0238,-0.0116 0.0163,0 0.0239,0.0118 0.008,0.0117 0.008,0.0355 z m -0.0161,0.0277 q 0.002,-0.005 0.003,-0.0116 7.9e-4,-0.007 7.9e-4,-0.0161 0,-0.009 -7.9e-4,-0.0161 -7.4e-4,-0.007 -0.003,-0.0116 -0.002,-0.005 -0.006,-0.007 -0.004,-0.002 -0.009,-0.002 -0.006,0 -0.01,0.002 -0.004,0.002 -0.006,0.007 -0.002,0.005 -0.003,0.0118 -7.4e-4,0.007 -7.4e-4,0.0159 0,0.01 6.7e-4,0.0159 6.8e-4,0.006 0.003,0.0115 0.002,0.005 0.006,0.007 0.004,0.003 0.01,0.003 0.006,0 0.01,-0.002 0.004,-0.002 0.006,-0.007 z"
       style=""
       id="path4442" />
    <path
       d="m 452.19571,835.48517 q 0,0.0245 -0.008,0.0359 -0.008,0.0114 -0.0237,0.0114 -0.0164,0 -0.0239,-0.0116 -0.008,-0.0116 -0.008,-0.0357 0,-0.0242 0.008,-0.0358 0.008,-0.0116 0.0238,-0.0116 0.0163,0 0.0239,0.0118 0.008,0.0117 0.008,0.0355 z m -0.0161,0.0277 q 0.002,-0.005 0.003,-0.0116 7.9e-4,-0.007 7.9e-4,-0.0161 0,-0.009 -7.9e-4,-0.0161 -7.4e-4,-0.007 -0.003,-0.0116 -0.002,-0.005 -0.006,-0.007 -0.004,-0.002 -0.009,-0.002 -0.006,0 -0.01,0.002 -0.004,0.002 -0.006,0.007 -0.002,0.005 -0.003,0.0118 -7.4e-4,0.007 -7.4e-4,0.0159 0,0.01 6.7e-4,0.0159 6.8e-4,0.006 0.003,0.0115 0.002,0.005 0.006,0.007 0.004,0.003 0.01,0.003 0.006,0 0.01,-0.002 0.004,-0.002 0.006,-0.007 z"
       style=""
       id="path4444" />
    <path
       d="m 452.2753,835.48517 q 0,0.0245 -0.008,0.0359 -0.008,0.0114 -0.0237,0.0114 -0.0164,0 -0.0239,-0.0116 -0.008,-0.0116 -0.008,-0.0357 0,-0.0242 0.008,-0.0358 0.008,-0.0116 0.0238,-0.0116 0.0163,0 0.0239,0.0118 0.008,0.0117 0.008,0.0355 z m -0.0161,0.0277 q 0.002,-0.005 0.003,-0.0116 7.9e-4,-0.007 7.9e-4,-0.0161 0,-0.009 -7.9e-4,-0.0161 -7.4e-4,-0.007 -0.003,-0.0116 -0.002,-0.005 -0.006,-0.007 -0.004,-0.002 -0.009,-0.002 -0.006,0 -0.01,0.002 -0.004,0.002 -0.006,0.007 -0.002,0.005 -0.003,0.0118 -7.4e-4,0.007 -7.4e-4,0.0159 0,0.01 6.7e-4,0.0159 6.8e-4,0.006 0.003,0.0115 0.002,0.005 0.006,0.007 0.004,0.003 0.01,0.003 0.006,0 0.01,-0.002 0.004,-0.002 0.006,-0.007 z"
       style=""
       id="path4446" />
    <path
       d="m 452.35025,835.53064 -0.0115,0 0,-0.007 q -0.005,0.004 -0.0103,0.007 -0.005,0.002 -0.0117,0.002 -0.0122,0 -0.0194,-0.009 -0.007,-0.009 -0.007,-0.0261 0,-0.009 0.002,-0.0154 0.003,-0.007 0.007,-0.0115 0.004,-0.005 0.01,-0.007 0.006,-0.002 0.0115,-0.002 0.005,0 0.01,0.001 0.004,0.001 0.009,0.003 l 0,-0.0295 0.0115,0 0,0.095 z m -0.0115,-0.0168 0,-0.0391 q -0.005,-0.002 -0.008,-0.003 -0.004,-7.9e-4 -0.008,-7.9e-4 -0.01,0 -0.015,0.007 -0.005,0.007 -0.005,0.019 0,0.0121 0.004,0.0185 0.004,0.006 0.0133,0.006 0.005,0 0.01,-0.002 0.005,-0.002 0.009,-0.006 z"
       style=""
       id="path4448" />
    <path
       d="m 452.4299,835.49774 -0.0502,0 q 0,0.006 0.002,0.011 0.002,0.005 0.005,0.008 0.003,0.003 0.008,0.004 0.004,0.001 0.01,0.001 0.007,0 0.014,-0.003 0.007,-0.003 0.0101,-0.005 l 6.1e-4,0 0,0.0125 q -0.006,0.002 -0.0118,0.004 -0.006,0.002 -0.0127,0.002 -0.017,0 -0.0265,-0.009 -0.01,-0.009 -0.01,-0.0261 0,-0.0167 0.009,-0.0265 0.009,-0.01 0.024,-0.01 0.0138,0 0.0212,0.008 0.008,0.008 0.008,0.0229 l 0,0.006 z m -0.0112,-0.009 q -6e-5,-0.009 -0.005,-0.014 -0.004,-0.005 -0.0136,-0.005 -0.009,0 -0.0147,0.005 -0.005,0.005 -0.006,0.0135 l 0.0391,0 z"
       style=""
       id="path4450" />
  </g>
</svg>
